<svg width="40" height="39" viewBox="0 0 40 39" fill="none" xmlns="http://www.w3.org/2000/svg">
<path d="M17.5522 20.5469C17.5522 22.1112 16.4315 23.384 15.0224 23.384C13.6354 23.384 12.4927 22.1112 12.4927 20.5469C12.4927 18.9834 13.6134 17.7098 15.0224 17.7098C16.4421 17.7098 17.5742 18.9948 17.5522 20.5469ZM26.905 20.5469C26.905 22.1112 25.7957 23.384 24.3753 23.384C22.9883 23.384 21.8455 22.1112 21.8455 20.5469C21.8455 18.9834 22.9662 17.7098 24.3753 17.7098C25.7957 17.7098 26.9271 18.9948 26.905 20.5469Z" fill="#222F65"/>
<path d="M35.0216 0H4.45006C2.12269 0 0.23584 1.88685 0.23584 4.21422V34.7858C0.23584 37.1131 2.12269 39 4.45006 39H35.0216C37.349 39 39.2358 37.1131 39.2358 34.7858V4.21422C39.2358 1.88685 37.349 0 35.0216 0ZM33.643 26.5833C33.6415 26.6092 33.6278 26.632 33.6065 26.648C31.1992 28.4161 28.8665 29.4897 26.5665 30.201C26.53 30.2124 26.4905 30.1988 26.4684 30.1676C25.9366 29.428 25.4542 28.6482 25.0312 27.8295C25.0068 27.7816 25.0289 27.7238 25.0791 27.7048C25.8394 27.4186 26.5741 27.0689 27.2756 26.6594C27.3312 26.6267 27.335 26.5475 27.2832 26.5095C27.1349 26.3992 26.9873 26.2828 26.8465 26.1664C26.8199 26.1451 26.7841 26.1405 26.7545 26.1557C22.2017 28.2586 17.2145 28.2586 12.6084 26.1557C12.578 26.142 12.5422 26.1466 12.5171 26.1679C12.3764 26.2835 12.2288 26.3992 12.0812 26.5095C12.0302 26.5475 12.0347 26.6267 12.0895 26.6594C12.791 27.0611 13.5199 27.4156 14.2853 27.7055C14.3355 27.7245 14.3591 27.7816 14.3347 27.8295C13.9208 28.6497 13.4377 29.4296 12.8968 30.1683C12.8732 30.1987 12.8344 30.2124 12.7979 30.201C10.5085 29.4897 8.17659 28.4161 5.76934 26.648C5.74879 26.632 5.73434 26.6076 5.73205 26.5818C5.24208 21.3298 6.24181 16.0124 9.89074 10.5603C9.89987 10.5458 9.9128 10.5344 9.92878 10.5283C11.7532 9.68965 13.6791 9.0922 15.6578 8.75103C15.6951 8.74571 15.7316 8.76245 15.7499 8.7944C15.9987 9.23492 16.2824 9.79869 16.4749 10.2598C18.5938 9.9364 20.7462 9.9364 22.91 10.2598C23.1017 9.80858 23.3756 9.23492 23.6237 8.7944C23.6419 8.76092 23.6784 8.74419 23.7157 8.75103C25.6942 9.09339 27.6199 9.6908 29.4448 10.5283C29.4607 10.5344 29.4737 10.5458 29.4813 10.5618C32.66 15.2371 34.2304 20.5111 33.643 26.5833Z" fill="#222F65"/>
</svg>
