<svg width="40" height="39" viewBox="0 0 40 39" fill="none" xmlns="http://www.w3.org/2000/svg">
<path d="M35.7801 1H3.25232C2.13848 1.00069 1.23567 1.90401 1.23584 3.01825V35.546C1.23653 36.6598 2.13985 37.5626 3.25409 37.5625H20.7668V23.4231H16.0179V17.8887H20.7668V13.8158C20.7668 9.09265 23.6502 6.52185 27.8635 6.52185C29.8815 6.52185 31.6157 6.67227 32.1211 6.73945V11.676H29.2158C26.9235 11.676 26.4797 12.7652 26.4797 14.3639V17.8887H31.9605L31.2464 23.4231H26.4797V37.5625H35.7801C36.8945 37.5627 37.7981 36.6595 37.7983 35.5451V3.01653C37.7979 1.90264 36.8943 0.999829 35.7801 1Z" fill="#222F65"/>
</svg>
