<svg width="40" height="39" viewBox="0 0 40 39" fill="none" xmlns="http://www.w3.org/2000/svg">
<g clip-path="url(#clip0_18_733)">
<path d="M28.8765 6.93164H10.5952C8.70516 6.93164 7.16748 8.4694 7.16748 10.3594V28.6406C7.16748 30.5307 8.70524 32.0684 10.5952 32.0684H28.8765C30.7665 32.0684 32.3042 30.5306 32.3042 28.6406V10.3594C32.3042 8.46932 30.7664 6.93164 28.8765 6.93164ZM19.7358 27.498C15.3263 27.498 11.7378 23.9096 11.7378 19.5C11.7378 15.0904 15.3263 11.502 19.7358 11.502C24.1454 11.502 27.7339 15.0904 27.7339 19.5C27.7339 23.9096 24.1454 27.498 19.7358 27.498ZM27.7339 13.7871C26.474 13.7871 25.4487 12.7618 25.4487 11.502C25.4487 10.2421 26.474 9.2168 27.7339 9.2168C28.9938 9.2168 30.019 10.2421 30.019 11.502C30.019 12.7618 28.9938 13.7871 27.7339 13.7871Z" fill="#222F65"/>
<path d="M19.7358 13.7871C16.586 13.7871 14.0229 16.3501 14.0229 19.5C14.0229 22.6499 16.586 25.2129 19.7358 25.2129C22.8857 25.2129 25.4487 22.6499 25.4487 19.5C25.4487 16.3501 22.8857 13.7871 19.7358 13.7871Z" fill="#222F65"/>
<path d="M33.4468 0H6.0249C2.87504 0 0.23584 2.6392 0.23584 5.78906V33.2109C0.23584 36.3608 2.87504 39 6.0249 39H33.4468C36.5966 39 39.2358 36.3608 39.2358 33.2109V5.78906C39.2358 2.6392 36.5966 0 33.4468 0ZM34.5894 28.6406C34.5894 31.7905 32.0263 34.3535 28.8765 34.3535H10.5952C7.44536 34.3535 4.88232 31.7905 4.88232 28.6406V10.3594C4.88232 7.20952 7.44536 4.64648 10.5952 4.64648H28.8765C32.0263 4.64648 34.5894 7.20952 34.5894 10.3594V28.6406Z" fill="#222F65"/>
</g>
<defs>
<clipPath id="clip0_18_733">
<rect width="39" height="39" fill="white" transform="translate(0.23584)"/>
</clipPath>
</defs>
</svg>
