<svg width="40" height="39" viewBox="0 0 40 39" fill="none" xmlns="http://www.w3.org/2000/svg">
<g clip-path="url(#clip0_18_743)">
<path d="M15.2751 24.3041C14.8659 24.3111 14.4638 24.196 14.1203 23.9735C13.7768 23.7509 13.5075 23.431 13.3467 23.0546C13.1859 22.6782 13.1409 22.2624 13.2176 21.8603C13.2942 21.4583 13.489 21.0882 13.777 20.7973C14.065 20.5065 14.4331 20.3081 14.8344 20.2275C15.2357 20.1469 15.6519 20.1878 16.0299 20.3449C16.4078 20.502 16.7304 20.7682 16.9563 21.1095C17.1822 21.4508 17.3013 21.8517 17.2983 22.261C17.3 22.8 17.0881 23.3176 16.7089 23.7006C16.3296 24.0836 15.8141 24.3006 15.2751 24.3041ZM24.2407 26.4181C24.29 26.4637 24.3294 26.5191 24.3563 26.5807C24.3833 26.6422 24.3972 26.7087 24.3972 26.7759C24.3972 26.8432 24.3833 26.9096 24.3563 26.9712C24.3294 27.0328 24.29 27.0882 24.2407 27.1338C22.3705 29.0306 17.0944 29.0306 15.2242 27.1338C15.1293 27.0439 15.0739 26.92 15.0704 26.7893C15.0669 26.6586 15.1154 26.5318 15.2053 26.4369C15.2952 26.342 15.4192 26.2867 15.5499 26.2832C15.6806 26.2796 15.8073 26.3282 15.9022 26.4181C17.3293 27.9049 22.0669 27.9293 23.5582 26.4181C23.6496 26.3293 23.772 26.2796 23.8995 26.2796C24.0269 26.2796 24.1493 26.3293 24.2407 26.4181ZM26.2439 22.2655C26.2356 22.664 26.11 23.0513 25.8828 23.3788C25.6556 23.7064 25.3369 23.9597 24.9666 24.1071C24.5962 24.2545 24.1906 24.2895 23.8004 24.2077C23.4103 24.1258 23.0529 23.9308 22.7731 23.6469C22.4932 23.3631 22.3031 23.003 22.2268 22.6118C22.1504 22.2205 22.191 21.8155 22.3436 21.4472C22.4962 21.0789 22.754 20.7638 23.0847 20.5412C23.4154 20.3186 23.8044 20.1985 24.203 20.1958C24.4731 20.197 24.7404 20.2515 24.9893 20.3563C25.2383 20.461 25.4641 20.614 25.6538 20.8063C25.8434 20.9987 25.9932 21.2266 26.0945 21.477C26.1957 21.7274 26.2465 21.9954 26.2439 22.2655Z" fill="#222F65"/>
<path d="M33.9177 0H5.55402C4.14355 0 2.79085 0.560307 1.7935 1.55766C0.796147 2.55501 0.23584 3.90771 0.23584 5.31818L0.23584 33.6818C0.23584 35.0923 0.796147 36.445 1.7935 37.4423C2.79085 38.4397 4.14355 39 5.55402 39H33.9177C35.3281 39 36.6808 38.4397 37.6782 37.4423C38.6755 36.445 39.2358 35.0923 39.2358 33.6818V5.31818C39.2358 3.90771 38.6755 2.55501 37.6782 1.55766C36.6808 0.560307 35.3281 0 33.9177 0ZM30.4276 21.9619C30.5396 22.3878 30.5954 22.8266 30.5938 23.267C30.5938 27.6346 25.7432 31.1756 19.7646 31.1756C13.7861 31.1756 8.95987 27.6302 8.95987 23.267C8.95787 22.8344 9.00245 22.4027 9.09283 21.9796C6.47806 20.6501 7.41317 16.7611 10.2695 16.7611C10.6389 16.761 11.0044 16.8364 11.3435 16.9827C11.6827 17.129 11.9883 17.3432 12.2416 17.612C14.0808 16.3224 16.5272 15.4936 19.2439 15.3806L20.795 8.20773C20.808 8.14616 20.8329 8.08775 20.8684 8.03582C20.9039 7.9839 20.9493 7.93948 21.002 7.90511C21.0547 7.87074 21.1136 7.8471 21.1754 7.83552C21.2373 7.82395 21.3008 7.82468 21.3623 7.83767L26.3658 8.96114C26.5357 8.64271 26.787 8.37497 27.0939 8.18517C27.4009 7.99536 27.7527 7.89026 28.1135 7.88056C28.4743 7.87086 28.8312 7.95691 29.1479 8.12995C29.4646 8.30299 29.7299 8.55684 29.9166 8.86568C30.1034 9.17452 30.205 9.52732 30.2112 9.88819C30.2173 10.2491 30.1277 10.6051 29.9515 10.9201C29.7754 11.2351 29.5189 11.4978 29.2083 11.6815C28.8976 11.8652 28.5438 11.9633 28.1829 11.9659C27.9155 11.9645 27.651 11.9102 27.4046 11.8064C27.1582 11.7025 26.9347 11.551 26.7469 11.3606C26.5592 11.1702 26.4109 10.9445 26.3105 10.6967C26.2101 10.4488 26.1596 10.1836 26.162 9.91619L21.6393 8.88358L20.2167 15.3895C22.9556 15.4781 25.4263 16.3069 27.2611 17.6054C27.5136 17.3443 27.8158 17.1365 28.15 16.9941C28.4841 16.8518 28.8434 16.7778 29.2066 16.7766C32.0474 16.7678 32.9914 20.6279 30.4276 21.9619Z" fill="#222F65"/>
</g>
<defs>
<clipPath id="clip0_18_743">
<rect width="39" height="39" fill="white" transform="translate(0.23584)"/>
</clipPath>
</defs>
</svg>
