<svg width="10" height="10" viewBox="0 0 10 10" fill="none" xmlns="http://www.w3.org/2000/svg">
<path id="Vector" d="M6.65 5.00036L9.74361 1.90669C10.0854 1.56488 10.0854 1.0107 9.74361 0.669408L9.33119 0.257017C8.98927 -0.0848792 8.43509 -0.0848792 8.09383 0.257017L5.00033 3.35057L1.90669 0.25636C1.56488 -0.0854535 1.0107 -0.0854535 0.669408 0.25636L0.25636 0.668807C-0.0854535 1.01073 -0.0854535 1.56491 0.25636 1.90617L3.35051 5.00033L0.256989 8.09391C-0.0849066 8.4358 -0.0849066 8.98998 0.256989 9.33127L0.669408 9.74364C1.01122 10.0855 1.5654 10.0855 1.90669 9.74364L5.0003 6.65003L8.09388 9.74364C8.43578 10.0855 8.98995 10.0855 9.33125 9.74364L9.74364 9.33122C10.0855 8.9893 10.0855 8.43512 9.74364 8.09385L6.65 5.00036Z" fill="black"/>
</svg>
