<svg width="40" height="39" viewBox="0 0 40 39" fill="none" xmlns="http://www.w3.org/2000/svg">
<g clip-path="url(#clip0_18_723)">
<path d="M26.4788 12.757L26.43 12.7082C24.8365 11.1142 22.7265 10.141 20.4795 9.9638C18.2325 9.78657 15.9961 10.4169 14.1723 11.7414C12.3486 13.0659 11.0573 14.9977 10.5308 17.1893C10.0042 19.3809 10.2769 21.6884 11.2998 23.6969L11.7164 24.5168L10.9408 28.2839L10.9297 28.3326L14.6724 27.4462L15.5255 27.8783C17.3006 28.7602 19.3075 29.0634 21.2639 28.7454C23.2203 28.4274 25.0278 27.5042 26.4322 26.1056C28.1988 24.3388 29.1953 21.9453 29.2044 19.4469C29.2135 16.9484 28.2346 14.5477 26.481 12.7681L26.4788 12.757ZM26.0976 23.3313C25.6389 24.0537 24.9143 24.9356 24.0036 25.155C22.4081 25.5428 19.9596 25.1683 16.9127 22.3297L16.875 22.2943C14.196 19.8124 13.5002 17.745 13.6686 16.1052C13.7617 15.1723 14.5372 14.3325 15.1909 13.7807C15.2944 13.693 15.417 13.6306 15.5489 13.5985C15.6807 13.5664 15.8183 13.5654 15.9505 13.5958C16.0828 13.6261 16.2062 13.6868 16.3109 13.7732C16.4156 13.8595 16.4987 13.9691 16.5537 14.0932L17.5398 16.3224C17.6043 16.466 17.6284 16.6245 17.6092 16.7807C17.5901 16.937 17.5285 17.085 17.4312 17.2087L16.9326 17.8558C16.8282 17.9885 16.7652 18.1489 16.7514 18.3172C16.7376 18.4855 16.7737 18.6541 16.8551 18.802C17.1343 19.2895 17.8035 20.0097 18.5458 20.6789C19.379 21.43 20.303 22.1192 20.888 22.3563C21.0449 22.4191 21.2169 22.4338 21.3822 22.3987C21.5475 22.3636 21.6987 22.2802 21.8165 22.1591L22.3948 21.5763C22.5064 21.4663 22.6452 21.3878 22.797 21.3488C22.9488 21.3099 23.1083 21.3119 23.259 21.3547L25.6013 22.0195C25.7308 22.059 25.8495 22.1277 25.9484 22.2203C26.0472 22.3129 26.1235 22.4269 26.1715 22.5535C26.2194 22.6802 26.2377 22.8162 26.2249 22.951C26.2121 23.0858 26.1685 23.2159 26.0976 23.3313Z" fill="#222F65"/>
<path d="M33.9177 0H5.55402C4.14355 0 2.79085 0.560307 1.7935 1.55766C0.796147 2.55501 0.23584 3.90771 0.23584 5.31818L0.23584 33.6818C0.23584 35.0923 0.796147 36.445 1.7935 37.4423C2.79085 38.4397 4.14355 39 5.55402 39H33.9177C35.3281 39 36.6808 38.4397 37.6782 37.4423C38.6755 36.445 39.2358 35.0923 39.2358 33.6818V5.31818C39.2358 3.90771 38.6755 2.55501 37.6782 1.55766C36.6808 0.560307 35.3281 0 33.9177 0ZM31.8192 19.7881C31.7538 21.8125 31.1809 23.7881 30.1532 25.5335C29.1254 27.2788 27.6757 28.7381 25.937 29.7772C24.1984 30.8164 22.2266 31.4022 20.2027 31.4808C18.1787 31.5594 16.1674 31.1284 14.3534 30.2272L8.24857 31.6742C8.15604 31.6958 8.05916 31.6889 7.9706 31.6545C7.88204 31.6201 7.80593 31.5598 7.7522 31.4814C7.71594 31.4294 7.69075 31.3705 7.67817 31.3084C7.66559 31.2463 7.6659 31.1822 7.67908 31.1202L8.96209 24.8913C8.12523 23.248 7.67536 21.4351 7.64692 19.5912C7.61848 17.7474 8.01222 15.9214 8.798 14.2531C9.58379 12.5848 10.7408 11.1184 12.1805 9.96601C13.6202 8.81364 15.3044 8.00589 17.1043 7.60455C18.9042 7.20322 20.7721 7.21894 22.5649 7.65052C24.3578 8.0821 26.0282 8.91809 27.4483 10.0945C28.8684 11.271 30.0006 12.7567 30.7581 14.438C31.5157 16.1193 31.8787 17.9516 31.8192 19.7947V19.7881Z" fill="#222F65"/>
</g>
<defs>
<clipPath id="clip0_18_723">
<rect width="39" height="39" fill="white" transform="translate(0.23584)"/>
</clipPath>
</defs>
</svg>
